PathFileType	4	(X/Y/Z)	H:\MAC\Pilotos\MDrajagopal3\Trimmed_runO3.trc
DataRate	CameraRate	NumFrames	NumMarkers	Units	OrigDataRate	OrigDataStartFrame	OrigNumFrames
150.00	150.00	       4	78	mm	150.00	93	       123
Frame#	Time	RACR			LACR			C7			CLAV			RASH			RPSH			LASH			LPSH			RUA1			RUA2			RUA3			RLEL			RMEL			RFAsuperior			RFAradius			RFAulna			LUA1			LUA2			LUA3			LLEL			LMEL			LFAsuperior			LFAradius			LFAulna			RASI			LASI			RPSI			LPSI			RTH1			RTH2			RTH3			RLFC			RMFC			RTB1			RTB2			RTB3			RLMAL			RMMAL			RCAL			RTOE			RMT5			LTH1			LTH2			LTH3			LLFC			LMFC			LTB1			LTB2			LTB3			LLMAL			LMMAL			LCAL			LTOE			LMT5			RSJC			LSJC			RHJC			LHJC			RKJC			LKJC			RAJC			LAJC			REJC			LEJC			Mid_ASIS			Mid_PSIS			RASHv			RPSHv			LPSHv			RLFCv			RMFCv			RLMALv			RMMALv			LLFCv			LMFCv			LLMALv			LMMALv			LASHv			
		X1	Y1	Z1	X2	Y2	Z2	X3	Y3	Z3	X4	Y4	Z4	X5	Y5	Z5	X6	Y6	Z6	X7	Y7	Z7	X8	Y8	Z8	X9	Y9	Z9	X10	Y10	Z10	X11	Y11	Z11	X12	Y12	Z12	X13	Y13	Z13	X14	Y14	Z14	X15	Y15	Z15	X16	Y16	Z16	X17	Y17	Z17	X18	Y18	Z18	X19	Y19	Z19	X20	Y20	Z20	X21	Y21	Z21	X22	Y22	Z22	X23	Y23	Z23	X24	Y24	Z24	X25	Y25	Z25	X26	Y26	Z26	X27	Y27	Z27	X28	Y28	Z28	X29	Y29	Z29	X30	Y30	Z30	X31	Y31	Z31	X32	Y32	Z32	X33	Y33	Z33	X34	Y34	Z34	X35	Y35	Z35	X36	Y36	Z36	X37	Y37	Z37	X38	Y38	Z38	X39	Y39	Z39	X40	Y40	Z40	X41	Y41	Z41	X42	Y42	Z42	X43	Y43	Z43	X44	Y44	Z44	X45	Y45	Z45	X46	Y46	Z46	X47	Y47	Z47	X48	Y48	Z48	X49	Y49	Z49	X50	Y50	Z50	X51	Y51	Z51	X52	Y52	Z52	X53	Y53	Z53	X54	Y54	Z54	X55	Y55	Z55	X56	Y56	Z56	X57	Y57	Z57	X58	Y58	Z58	X59	Y59	Z59	X60	Y60	Z60	X61	Y61	Z61	X62	Y62	Z62	X63	Y63	Z63	X64	Y64	Z64	X65	Y65	Z65	X66	Y66	Z66	X67	Y67	Z67	X68	Y68	Z68	X69	Y69	Z69	X70	Y70	Z70	X71	Y71	Z71	X72	Y72	Z72	X73	Y73	Z73	X74	Y74	Z74	X75	Y75	Z75	X76	Y76	Z76	X77	Y77	Z77	X78	Y78	Z78	

93	0.613	1610.77307	1387.85986	-19.31783	1693.02405	1389.09570	-346.91455	1595.36658	1409.76160	-200.39993	1721.90942	1336.99670	-122.70866													1548.69324	1292.76123	58.40277	1538.38684	1210.11133	59.03466	1453.55505	1249.78906	55.96185	1446.85559	1186.23206	91.94547	1434.92627	1161.86731	6.78510	1522.84814	1073.20544	64.00571	1551.67090	998.20099	40.79763	1508.96716	963.28906	90.62295	1707.85962	1283.92773	-412.62805	1728.70630	1184.69128	-406.22269	1643.81116	1178.41138	-438.30774	1703.70068	1115.02332	-439.85294	1627.41846	1090.17102	-386.04190	1796.93604	1110.97852	-345.64612	1817.27808	1121.23450	-269.34674	1850.35474	1059.42847	-288.46753	1686.95508	884.28418	-84.10130	1678.52991	879.67584	-315.58432	1511.83850	923.55310	-152.11383	1507.93201	926.69446	-234.64171	1615.09033	783.63611	-31.67758	1659.34583	627.24677	-62.59341	1740.45483	632.13080	-46.14359							1791.80591	377.53519	-99.39790	1697.26489	391.62399	-41.66682	1684.36987	261.36588	-59.95611							1533.05640	145.84039	-112.40687	1713.97754	67.91405	-63.53851	1674.49939	81.38239	-33.85327	1575.72668	793.52435	-369.10602	1510.92407	651.98932	-329.21597	1555.05042	567.91162	-337.02362							1542.04956	336.05725	-261.73251	1428.70239	321.25345	-316.78073	1437.78259	186.38940	-263.81268							1294.02734	104.68733	-213.02751	1478.38440	34.56242	-235.18091	1441.96814	31.36015	-275.60461																									1440.89087	1174.04968	49.36529	1665.55957	1102.59717	-412.94742	1682.74243	881.97998	-199.84282	1509.88525	925.12378	-193.37778	1640.67664	1248.36328	11.45921	1566.17908	1338.97974	22.23143	1742.42053	1373.46582	-363.45178	1767.83105	527.37939	-40.24847	1819.26428	528.42560	-166.77271	1606.34412	147.63983	-35.63083	1642.79431	133.68913	-118.57283	1562.23279	500.07443	-360.25882	1580.64819	488.41760	-228.95203	1365.49646	83.03352	-259.34839	1419.43347	92.86714	-185.49440	1822.61450	1320.75342	-329.98938	
94	0.620	1624.70679	1392.60205	-19.02244	1715.01294	1396.01038	-343.25864	1613.53784	1414.88489	-199.41083	1738.17395	1342.21619	-119.36507													1559.98267	1300.04065	57.70734	1549.28943	1217.31604	59.05405	1464.83887	1257.06372	52.86000	1456.71069	1194.21570	89.43095	1447.05859	1169.21960	4.24771	1534.90735	1082.33850	65.54991	1564.18115	1007.01093	42.49690	1521.04138	972.30945	92.15071	1732.19312	1291.96558	-409.66046	1752.65002	1192.96753	-404.17776	1667.31030	1187.13757	-437.31277	1728.19751	1123.92981	-439.60367	1651.77258	1097.53894	-387.62021	1818.04150	1120.95410	-342.03278	1835.41504	1130.26672	-264.67026	1870.07910	1069.37341	-283.40851	1707.17834	890.70544	-83.74615	1696.34326	883.13013	-313.78964	1531.11108	928.96423	-149.70363	1526.80457	931.48889	-232.36963	1636.53430	791.07764	-28.78662	1679.22205	634.13123	-60.27458	1760.33289	638.95258	-46.03434							1816.77856	381.11072	-99.57523	1722.74536	387.97665	-39.68185	1719.09167	256.98923	-58.56282							1576.30713	130.95425	-109.83322	1763.20544	65.75758	-65.96992	1723.70569	76.11451	-35.10956	1590.58704	797.50702	-365.41168	1522.54285	658.53705	-326.22729	1563.79663	573.12103	-335.64200							1547.05469	341.27914	-262.66516	1433.98279	328.13953	-317.25726	1441.90344	193.42340	-265.21228							1298.62256	112.93333	-214.51898	1479.00781	34.53231	-235.44847	1442.86035	31.60938	-275.12964																									1451.88464	1181.71765	46.83933	1689.98511	1110.73438	-413.61194	1701.76074	886.91779	-198.76790	1528.95789	930.22656	-191.03662	1653.33105	1254.99048	14.20603	1578.78113	1345.72986	21.52192	1766.57507	1380.87146	-359.22797	1787.71509	534.01691	-40.39953	1835.72729	534.29370	-168.26506	1650.10571	137.95866	-33.15679	1685.61816	127.08776	-116.96196	1568.11938	504.53326	-359.51373	1588.34131	490.82370	-228.67181	1367.69604	90.22828	-261.38800	1421.91235	99.01092	-187.60602	1846.34619	1327.58179	-325.66931	
95	0.627	1639.04590	1397.16064	-18.73115	1736.74170	1402.76538	-339.45273	1631.59546	1419.92078	-198.16310	1754.60193	1347.23230	-116.09588													1571.64441	1307.12939	56.81724	1560.64978	1224.37048	58.79780	1476.33398	1263.99072	49.31725	1466.85486	1202.02771	86.40200	1459.76965	1176.35205	1.20691	1546.52942	1091.12781	66.19014	1577.23303	1015.76343	44.15496	1533.85120	981.38690	93.58738	1756.59460	1299.91309	-406.77780	1776.05872	1201.15637	-402.40466	1690.24805	1196.04858	-436.30417	1752.25049	1132.97742	-439.66910	1674.79004	1105.29443	-390.10522	1838.58752	1130.69800	-338.71817	1853.14221	1138.89246	-260.39810	1889.37427	1078.76355	-278.86774	1727.61426	896.95874	-83.39220	1714.30151	886.68817	-312.03671	1550.44348	934.13812	-147.41055	1545.69702	936.16388	-230.15932	1657.86499	798.52271	-25.63466	1698.26758	640.62964	-58.19171	1779.30994	644.98950	-45.63896							1840.87671	384.44037	-99.48273	1748.29919	383.97174	-37.30842	1753.61072	252.93478	-57.20164							1619.74036	117.24222	-106.89211	1772.13171	71.05594	-36.96405	1811.86682	64.78119	-69.43305	1605.78918	801.95184	-362.36365	1534.41150	665.02893	-323.27939	1573.32300	578.59039	-334.36667							1552.64001	346.78271	-263.75082	1439.84839	335.12906	-317.56378	1446.86011	199.86591	-267.00955							1304.19946	121.40949	-215.90269	1479.78357	34.53265	-235.75476	1444.09021	32.22596	-274.76788																									1463.31226	1189.18982	43.80445	1713.52026	1119.13586	-414.88715	1720.95789	891.82343	-197.71446	1548.07031	935.15100	-188.78493	1666.34094	1261.50623	16.98120	1591.77112	1352.33008	20.73285	1791.48560	1387.89893	-355.09668	1805.92236	539.82117	-40.57585	1851.18835	539.64752	-169.43935	1694.16980	129.26125	-31.10971	1728.23486	121.61647	-115.86667	1574.55774	509.74658	-358.63730	1596.64172	494.21661	-228.30081	1371.36670	97.10772	-264.06921	1426.03015	104.72717	-190.48808	1870.60596	1333.50671	-321.76688	
96	0.633	1653.60901	1401.44946	-18.47113	1758.12341	1409.23401	-335.59286	1649.70471	1424.74780	-196.79466	1771.07166	1352.03784	-113.00441													1583.68152	1313.96863	55.73494	1572.17993	1231.14990	58.98413	1488.24194	1270.50574	45.38848	1477.31165	1209.51355	82.98090	1473.13135	1182.92407	-2.08996	1558.34546	1099.77197	66.89169	1590.65210	1024.29956	45.94312	1546.74097	989.99927	95.05040	1779.89661	1307.76831	-403.68671	1798.95215	1209.23718	-400.91144	1712.94275	1204.97266	-435.40347	1775.81531	1141.98071	-439.69250	1696.82886	1112.75647	-392.14951	1858.46313	1139.73242	-335.62863	1870.72852	1147.01038	-256.79352	1908.22583	1087.50439	-274.76987	1748.25195	902.99072	-83.14945	1732.39661	890.32898	-310.74646	1569.86877	939.04095	-145.23151	1564.84973	940.70142	-227.97566	1679.32275	805.43597	-22.83622	1716.36218	646.36121	-56.40876	1797.32910	649.74188	-45.13659							1864.30542	387.20633	-99.51141	1773.80200	379.68726	-34.63090	1787.85962	249.39247	-56.00409							1663.42065	104.74104	-104.26422	1859.98877	65.81062	-73.17634	1820.81323	68.25021	-39.33824	1621.20898	806.48486	-359.36505	1546.81860	671.62256	-320.28082	1583.62219	584.61053	-333.21121							1558.80444	352.69147	-264.83820	1446.01404	342.38367	-317.65158	1452.39587	206.56186	-268.83896							1310.60083	130.43686	-217.23155	1480.67700	34.49369	-236.34654	1445.43628	33.16051	-274.77069																									1475.22156	1196.21887	40.44547	1736.32202	1127.36853	-415.92099	1740.32434	896.65985	-196.94795	1567.35925	939.87115	-186.60358	1679.80664	1267.49084	20.58396	1605.42920	1358.32910	19.54852	1814.84314	1394.75024	-350.36972	1822.29443	544.06958	-40.65220	1865.36658	543.28516	-170.26326	1738.11194	121.74258	-29.38030	1770.10596	117.17930	-115.16010	1581.59094	515.27881	-357.74191	1605.67310	497.84302	-228.00168	1376.01636	104.12931	-266.59116	1431.30444	110.56817	-193.36485	1893.63708	1339.53882	-317.61868	
